<mxfile host="app.diagrams.net" agent="Mozilla/5.0 (Macintosh; Intel Mac OS X 10_15_7) AppleWebKit/537.36 (KHTML, like Gecko) Chrome/128.0.0.0 Safari/537.36" version="24.7.12">
  <diagram name="Page-1" id="KiIrbtpVZtrvvdWTADCa">
    <mxGraphModel dx="1060" dy="680" grid="1" gridSize="10" guides="1" tooltips="1" connect="1" arrows="1" fold="1" page="1" pageScale="1" pageWidth="827" pageHeight="1169" math="0" shadow="0">
      <root>
        <mxCell id="0" />
        <mxCell id="1" parent="0" />
        <mxCell id="BgNTB39lUTYUrmmQdlRk-23" value="" style="rounded=1;whiteSpace=wrap;html=1;" vertex="1" parent="1">
          <mxGeometry x="100" y="140" width="630" height="510" as="geometry" />
        </mxCell>
        <mxCell id="BgNTB39lUTYUrmmQdlRk-25" value="VPC" style="sketch=0;outlineConnect=0;html=1;whiteSpace=wrap;fontSize=12;fontStyle=0;shape=mxgraph.aws4.group;grIcon=mxgraph.aws4.group_vpc;strokeColor=#82b366;fillColor=#ffffff;verticalAlign=top;align=left;spacingLeft=30;dashed=0;" vertex="1" parent="1">
          <mxGeometry x="125" y="210" width="575" height="400" as="geometry" />
        </mxCell>
        <mxCell id="BgNTB39lUTYUrmmQdlRk-38" style="edgeStyle=orthogonalEdgeStyle;rounded=0;orthogonalLoop=1;jettySize=auto;html=1;startArrow=classic;startFill=1;dashed=1;dashPattern=12 12;fillColor=#e3c800;strokeColor=#B09500;" edge="1" parent="1" source="BgNTB39lUTYUrmmQdlRk-15" target="BgNTB39lUTYUrmmQdlRk-21">
          <mxGeometry relative="1" as="geometry">
            <Array as="points">
              <mxPoint x="540" y="292" />
              <mxPoint x="540" y="292" />
            </Array>
          </mxGeometry>
        </mxCell>
        <mxCell id="BgNTB39lUTYUrmmQdlRk-39" value="Alerts/Tickets" style="edgeLabel;html=1;align=center;verticalAlign=middle;resizable=0;points=[];" vertex="1" connectable="0" parent="BgNTB39lUTYUrmmQdlRk-38">
          <mxGeometry x="0.003" y="-2" relative="1" as="geometry">
            <mxPoint x="1" y="1" as="offset" />
          </mxGeometry>
        </mxCell>
        <mxCell id="BgNTB39lUTYUrmmQdlRk-15" value="Elastic &amp;amp; Kibana" style="outlineConnect=0;dashed=0;verticalLabelPosition=bottom;verticalAlign=top;align=center;html=1;shape=mxgraph.aws3.traditional_server;fillColor=#ffe6cc;strokeColor=#d79b00;" vertex="1" parent="1">
          <mxGeometry x="367" y="260" width="46.5" height="63" as="geometry" />
        </mxCell>
        <mxCell id="BgNTB39lUTYUrmmQdlRk-16" value="Ubuntu Server (SSH Enabled)" style="outlineConnect=0;dashed=0;verticalLabelPosition=bottom;verticalAlign=top;align=center;html=1;shape=mxgraph.aws3.traditional_server;fillColor=#7D7C7C;gradientColor=none;" vertex="1" parent="1">
          <mxGeometry x="580" y="520" width="46.5" height="65" as="geometry" />
        </mxCell>
        <mxCell id="BgNTB39lUTYUrmmQdlRk-36" style="edgeStyle=orthogonalEdgeStyle;rounded=0;orthogonalLoop=1;jettySize=auto;html=1;endArrow=classic;endFill=1;startArrow=classic;startFill=1;dashed=1;dashPattern=12 12;fillColor=#fa6800;strokeColor=#C73500;" edge="1" parent="1" source="BgNTB39lUTYUrmmQdlRk-18" target="BgNTB39lUTYUrmmQdlRk-15">
          <mxGeometry relative="1" as="geometry" />
        </mxCell>
        <mxCell id="BgNTB39lUTYUrmmQdlRk-40" value="Managed Agents" style="edgeLabel;html=1;align=center;verticalAlign=middle;resizable=0;points=[];" vertex="1" connectable="0" parent="BgNTB39lUTYUrmmQdlRk-36">
          <mxGeometry x="-0.1156" y="1" relative="1" as="geometry">
            <mxPoint as="offset" />
          </mxGeometry>
        </mxCell>
        <mxCell id="BgNTB39lUTYUrmmQdlRk-18" value="Fleet Server" style="outlineConnect=0;dashed=0;verticalLabelPosition=bottom;verticalAlign=top;align=center;html=1;shape=mxgraph.aws3.traditional_server;fillColor=#d5e8d4;strokeColor=#82b366;" vertex="1" parent="1">
          <mxGeometry x="367" y="522" width="46.5" height="63" as="geometry" />
        </mxCell>
        <mxCell id="BgNTB39lUTYUrmmQdlRk-19" value="C2 Server&lt;div&gt;Mythic&lt;/div&gt;" style="outlineConnect=0;dashed=0;verticalLabelPosition=bottom;verticalAlign=top;align=center;html=1;shape=mxgraph.aws3.traditional_server;fillColor=#e61005;strokeColor=#b85450;" vertex="1" parent="1">
          <mxGeometry x="760" y="70" width="46.5" height="60" as="geometry" />
        </mxCell>
        <mxCell id="BgNTB39lUTYUrmmQdlRk-21" value="OS Ticketing Server&lt;div&gt;&lt;br&gt;&lt;/div&gt;" style="outlineConnect=0;dashed=0;verticalLabelPosition=bottom;verticalAlign=top;align=center;html=1;shape=mxgraph.aws3.traditional_server;fillColor=#dae8fc;strokeColor=#6c8ebf;" vertex="1" parent="1">
          <mxGeometry x="610" y="250" width="46.5" height="63" as="geometry" />
        </mxCell>
        <mxCell id="BgNTB39lUTYUrmmQdlRk-24" value="VULTR" style="text;html=1;align=center;verticalAlign=middle;whiteSpace=wrap;rounded=0;" vertex="1" parent="1">
          <mxGeometry x="130" y="161" width="60" height="30" as="geometry" />
        </mxCell>
        <mxCell id="BgNTB39lUTYUrmmQdlRk-32" style="edgeStyle=orthogonalEdgeStyle;rounded=0;orthogonalLoop=1;jettySize=auto;html=1;" edge="1" parent="1" source="BgNTB39lUTYUrmmQdlRk-31" target="BgNTB39lUTYUrmmQdlRk-18">
          <mxGeometry relative="1" as="geometry" />
        </mxCell>
        <mxCell id="BgNTB39lUTYUrmmQdlRk-34" value="Managed" style="edgeLabel;html=1;align=center;verticalAlign=middle;resizable=0;points=[];" vertex="1" connectable="0" parent="BgNTB39lUTYUrmmQdlRk-32">
          <mxGeometry x="-0.1784" y="2" relative="1" as="geometry">
            <mxPoint y="1" as="offset" />
          </mxGeometry>
        </mxCell>
        <mxCell id="BgNTB39lUTYUrmmQdlRk-31" value="Windows Server (RDP Enabled)" style="outlineConnect=0;dashed=0;verticalLabelPosition=bottom;verticalAlign=top;align=center;html=1;shape=mxgraph.aws3.traditional_server;fillColor=#7D7C7C;gradientColor=none;" vertex="1" parent="1">
          <mxGeometry x="190" y="522" width="46.5" height="63" as="geometry" />
        </mxCell>
        <mxCell id="BgNTB39lUTYUrmmQdlRk-33" style="edgeStyle=orthogonalEdgeStyle;rounded=0;orthogonalLoop=1;jettySize=auto;html=1;entryX=1;entryY=0.5;entryDx=0;entryDy=0;entryPerimeter=0;" edge="1" parent="1" source="BgNTB39lUTYUrmmQdlRk-16" target="BgNTB39lUTYUrmmQdlRk-18">
          <mxGeometry relative="1" as="geometry" />
        </mxCell>
        <mxCell id="BgNTB39lUTYUrmmQdlRk-35" value="Managed" style="edgeLabel;html=1;align=center;verticalAlign=middle;resizable=0;points=[];" vertex="1" connectable="0" parent="BgNTB39lUTYUrmmQdlRk-33">
          <mxGeometry x="-0.4234" y="1" relative="1" as="geometry">
            <mxPoint x="-32" y="-1" as="offset" />
          </mxGeometry>
        </mxCell>
        <mxCell id="BgNTB39lUTYUrmmQdlRk-41" style="rounded=0;orthogonalLoop=1;jettySize=auto;html=1;exitX=0.5;exitY=0;exitDx=0;exitDy=0;exitPerimeter=0;entryX=0;entryY=0.5;entryDx=0;entryDy=0;entryPerimeter=0;dashed=1;dashPattern=12 12;fillColor=#b1ddf0;strokeColor=#10739e;" edge="1" parent="1" source="BgNTB39lUTYUrmmQdlRk-31" target="BgNTB39lUTYUrmmQdlRk-15">
          <mxGeometry relative="1" as="geometry" />
        </mxCell>
        <mxCell id="BgNTB39lUTYUrmmQdlRk-45" value="Forward Logs via Agent" style="edgeLabel;html=1;align=center;verticalAlign=middle;resizable=0;points=[];" vertex="1" connectable="0" parent="BgNTB39lUTYUrmmQdlRk-41">
          <mxGeometry x="-0.2272" y="-3" relative="1" as="geometry">
            <mxPoint as="offset" />
          </mxGeometry>
        </mxCell>
        <mxCell id="BgNTB39lUTYUrmmQdlRk-43" style="rounded=0;orthogonalLoop=1;jettySize=auto;html=1;entryX=1;entryY=0.5;entryDx=0;entryDy=0;entryPerimeter=0;fillColor=#b0e3e6;strokeColor=#0e8088;dashed=1;dashPattern=12 12;" edge="1" parent="1" source="BgNTB39lUTYUrmmQdlRk-16" target="BgNTB39lUTYUrmmQdlRk-15">
          <mxGeometry relative="1" as="geometry" />
        </mxCell>
        <mxCell id="BgNTB39lUTYUrmmQdlRk-46" value="Forward Logs via Agent" style="edgeLabel;html=1;align=center;verticalAlign=middle;resizable=0;points=[];" vertex="1" connectable="0" parent="BgNTB39lUTYUrmmQdlRk-43">
          <mxGeometry x="-0.2619" y="-4" relative="1" as="geometry">
            <mxPoint y="-1" as="offset" />
          </mxGeometry>
        </mxCell>
        <mxCell id="BgNTB39lUTYUrmmQdlRk-47" value="Private Network: 172.31.0.0/24&lt;div&gt;IP Range: 172.31.0.1-254&lt;/div&gt;&lt;div&gt;Subnet Mask: 255.255.255.0&lt;/div&gt;" style="text;html=1;align=left;verticalAlign=middle;whiteSpace=wrap;rounded=0;" vertex="1" parent="1">
          <mxGeometry x="140" y="280" width="160" height="70" as="geometry" />
        </mxCell>
        <mxCell id="BgNTB39lUTYUrmmQdlRk-51" style="edgeStyle=orthogonalEdgeStyle;rounded=0;orthogonalLoop=1;jettySize=auto;html=1;" edge="1" parent="1" source="BgNTB39lUTYUrmmQdlRk-48" target="BgNTB39lUTYUrmmQdlRk-25">
          <mxGeometry relative="1" as="geometry" />
        </mxCell>
        <mxCell id="BgNTB39lUTYUrmmQdlRk-48" value="" style="outlineConnect=0;dashed=0;verticalLabelPosition=bottom;verticalAlign=top;align=center;html=1;shape=mxgraph.aws3.internet_gateway;fillColor=#F58534;gradientColor=none;" vertex="1" parent="1">
          <mxGeometry x="387.5" y="140" width="50" height="50" as="geometry" />
        </mxCell>
        <mxCell id="BgNTB39lUTYUrmmQdlRk-50" style="rounded=0;orthogonalLoop=1;jettySize=auto;html=1;exitX=0.55;exitY=0.95;exitDx=0;exitDy=0;exitPerimeter=0;" edge="1" parent="1" source="BgNTB39lUTYUrmmQdlRk-49" target="BgNTB39lUTYUrmmQdlRk-48">
          <mxGeometry relative="1" as="geometry" />
        </mxCell>
        <mxCell id="BgNTB39lUTYUrmmQdlRk-49" value="Internet" style="ellipse;shape=cloud;whiteSpace=wrap;html=1;" vertex="1" parent="1">
          <mxGeometry x="345" y="10" width="120" height="80" as="geometry" />
        </mxCell>
        <mxCell id="BgNTB39lUTYUrmmQdlRk-54" style="rounded=0;orthogonalLoop=1;jettySize=auto;html=1;" edge="1" parent="1" source="BgNTB39lUTYUrmmQdlRk-53" target="BgNTB39lUTYUrmmQdlRk-49">
          <mxGeometry relative="1" as="geometry" />
        </mxCell>
        <mxCell id="BgNTB39lUTYUrmmQdlRk-55" value="Connect to Elastic/Kibana via Web GUI" style="edgeLabel;html=1;align=center;verticalAlign=middle;resizable=0;points=[];" vertex="1" connectable="0" parent="BgNTB39lUTYUrmmQdlRk-54">
          <mxGeometry x="-0.1231" y="-2" relative="1" as="geometry">
            <mxPoint x="10" y="8" as="offset" />
          </mxGeometry>
        </mxCell>
        <mxCell id="BgNTB39lUTYUrmmQdlRk-53" value="SOC Analyst Laptop" style="verticalLabelPosition=bottom;html=1;verticalAlign=top;align=center;strokeColor=none;fillColor=#00BEF2;shape=mxgraph.azure.laptop;pointerEvents=1;" vertex="1" parent="1">
          <mxGeometry x="80" y="35" width="60" height="30" as="geometry" />
        </mxCell>
        <mxCell id="BgNTB39lUTYUrmmQdlRk-56" value="Attacker Laptop with Kali Linux" style="verticalLabelPosition=bottom;html=1;verticalAlign=top;align=center;strokeColor=#ae4132;fillColor=#FF0000;shape=mxgraph.azure.laptop;pointerEvents=1;" vertex="1" parent="1">
          <mxGeometry x="753.25" y="20" width="60" height="30" as="geometry" />
        </mxCell>
        <mxCell id="BgNTB39lUTYUrmmQdlRk-57" style="rounded=0;orthogonalLoop=1;jettySize=auto;html=1;exitX=0.08;exitY=0.5;exitDx=0;exitDy=0;exitPerimeter=0;entryX=0.875;entryY=0.5;entryDx=0;entryDy=0;entryPerimeter=0;" edge="1" parent="1" source="BgNTB39lUTYUrmmQdlRk-56" target="BgNTB39lUTYUrmmQdlRk-49">
          <mxGeometry relative="1" as="geometry" />
        </mxCell>
        <mxCell id="BgNTB39lUTYUrmmQdlRk-59" style="rounded=0;orthogonalLoop=1;jettySize=auto;html=1;entryX=0.8;entryY=0.8;entryDx=0;entryDy=0;entryPerimeter=0;" edge="1" parent="1" source="BgNTB39lUTYUrmmQdlRk-19" target="BgNTB39lUTYUrmmQdlRk-49">
          <mxGeometry relative="1" as="geometry" />
        </mxCell>
      </root>
    </mxGraphModel>
  </diagram>
</mxfile>
